<?xml version="1.0" encoding="utf-8"?>
<!-- Generator: Adobe Illustrator 26.3.1, SVG Export Plug-In . SVG Version: 6.00 Build 0)  -->
<svg version="1.1" id="Calque_1" xmlns="http://www.w3.org/2000/svg" xmlns:xlink="http://www.w3.org/1999/xlink" x="0px" y="0px"
	 viewBox="0 0 43.8 49.3" style="enable-background:new 0 0 43.8 49.3;" xml:space="preserve">
<style type="text/css">
	.st0{fill:#4E4E4E;}
	.st1{fill:#333333;}
	.st2{fill:#FFFFFF;}
</style>
<g id="Calque_2_1_">
	<g>
		<path class="st0" d="M0.2,35c0,4.7,3.8,8.5,8.5,8.5h26.4c4.7,0,8.5-3.8,8.5-8.5V8.7c0-4.7-3.8-8.5-8.5-8.5H8.7
			C4,0.1,0.2,4,0.2,8.7V35z"/>
	</g>
</g>
<g>
	<path class="st1" d="M6.7,23.4c0-0.1,0-0.2,0-0.2c0-0.9,0-1.8,0-2.7c0-0.1,0-0.2,0.1-0.3c4.1-3.5,8.3-7,12.4-10.5
		C20.2,9,21,8.2,21.9,7.5C21.9,7.5,22,7.4,22,7.4c0,0,0.1,0.1,0.1,0.1c5,4.2,10.1,8.4,15.1,12.7c0.1,0.1,0.1,0.2,0.1,0.3
		c0,0.9,0,1.9,0,2.8c0,0.1,0,0.1,0,0.2c-5.1-4.3-10.2-8.6-15.4-12.8C17,14.9,11.9,19.1,6.7,23.4z"/>
	<path class="st1" d="M33.5,24.5c-0.8,0-1.7,0-2.5,0c0-0.1-0.1-0.1-0.1-0.2c-0.2-0.5-0.5-1-0.9-1.3c-0.2-0.1-0.3-0.3-0.5-0.4
		c-0.7-0.4-1.4-0.5-2.2-0.1c-0.4,0.2-0.6,0.4-0.9,0.7c-0.3,0.4-0.6,0.8-0.9,1.3c-0.5,0.8-0.8,1.7-1.2,2.6c-0.8,2-1.6,4-2.4,5.9
		c-0.4,1.1-1,2.1-1.7,3c-0.5,0.7-1.1,1.3-1.8,1.8c-0.7,0.5-1.4,0.8-2.3,0.9c-1.4,0.2-2.6-0.2-3.7-1.1c-0.4-0.4-0.8-0.8-1.1-1.2
		c-0.5-0.7-0.8-1.4-1.1-2.1c0-0.1,0-0.1,0-0.2c0,0,0,0,0,0c0,0,0.1,0,0.1,0c0.7,0,1.5,0,2.2,0c0.1,0,0.2,0,0.3,0.2
		c0.3,0.5,0.6,0.9,1,1.3c0.1,0.1,0.2,0.2,0.4,0.3c0.3,0.2,0.6,0.3,0.9,0.4c0.2,0,0.5,0.1,0.7,0.1c0.4,0,0.8-0.1,1.1-0.3
		c0.3-0.2,0.6-0.4,0.8-0.7c0.3-0.4,0.6-0.8,0.9-1.3c0.6-1,1.1-2.1,1.5-3.1c0.5-1.3,1.1-2.7,1.6-4c0.5-1.1,0.9-2.2,1.5-3.3
		c0.3-0.6,0.6-1.1,1-1.6c0.5-0.6,1-1.1,1.8-1.4c0.9-0.4,1.8-0.6,2.7-0.5c1,0.1,1.9,0.5,2.7,1.2c0.7,0.7,1.3,1.5,1.7,2.4
		C33.4,23.8,33.5,24.1,33.5,24.5C33.5,24.5,33.5,24.5,33.5,24.5z"/>
	<path class="st1" d="M20.5,38.6c0-0.1,0.1-0.1,0.1-0.1c0.5-0.7,1.1-1.4,1.6-2.1c0.1-0.1,0.1-0.1,0.3-0.1c1.9,0,3.9,0,5.8,0
		c0.3,0,0.6,0,0.9-0.1c0.6-0.2,1-0.5,1.4-1c0.4-0.5,0.6-1.1,0.7-1.8c0-0.1,0-0.3,0-0.5c0-2.1,0-4.2,0-6.2c0-0.1,0-0.1,0-0.2
		c0.8,0,1.7,0,2.5-0.1c0,0.1,0,0.1,0,0.2c0,2.2,0,4.4,0,6.6c0,0.7-0.1,1.4-0.4,2.1c-0.4,1-1.1,1.9-2,2.5c-0.8,0.5-1.8,0.8-2.8,1
		c-0.1,0-0.2,0-0.3,0c-2.3,0-4.7-0.1-7-0.1C21,38.6,20.8,38.6,20.5,38.6z"/>
	<path class="st1" d="M12.7,20.7c0,3.8,0,7.5,0,11.3c-0.1,0-2.2,0.1-2.4,0c0-0.1,0-0.1,0-0.2c0-1,0-2,0-3c0-2,0-3.9,0-5.9
		c0-0.1,0-0.2,0.1-0.3c0.7-0.6,1.4-1.2,2.2-1.8C12.6,20.8,12.7,20.8,12.7,20.7z"/>
	<path class="st1" d="M10.3,9.8c0.9,0,1.7,0,2.5-0.1c0,0.1,0,0.1,0,0.1c0,0.9,0,1.8,0,2.7c0,0.1,0,0.1-0.1,0.2
		c-0.8,0.6-1.6,1.2-2.4,1.9c0,0,0,0-0.1,0C10.3,13.1,10.3,11.4,10.3,9.8z"/>
</g>
<g>
	<path class="st2" d="M6.6,23c0-0.1,0-0.2,0-0.2c0-0.9,0-1.8,0-2.7c0-0.1,0-0.2,0.1-0.3c4.1-3.5,8.3-7,12.4-10.5
		c0.8-0.7,1.7-1.4,2.5-2.2C21.7,7,21.8,7,21.9,6.9C21.9,7,21.9,7,22,7c5,4.2,10.1,8.4,15.1,12.7c0.1,0.1,0.1,0.2,0.1,0.3
		c0,0.9,0,1.9,0,2.8c0,0.1,0,0.1,0,0.2c-5.1-4.3-10.2-8.6-15.4-12.8C16.8,14.4,11.7,18.7,6.6,23z"/>
	<path class="st2" d="M33.3,24.1c-0.8,0-1.7,0-2.5,0c0-0.1-0.1-0.1-0.1-0.2c-0.2-0.5-0.5-1-0.9-1.3c-0.2-0.1-0.3-0.3-0.5-0.4
		c-0.7-0.4-1.4-0.5-2.2-0.1c-0.4,0.2-0.6,0.4-0.9,0.7c-0.3,0.4-0.6,0.8-0.9,1.3c-0.5,0.8-0.8,1.7-1.2,2.6c-0.8,2-1.6,4-2.4,5.9
		c-0.4,1.1-1,2.1-1.7,3c-0.5,0.7-1.1,1.3-1.8,1.8c-0.7,0.5-1.4,0.8-2.3,0.9c-1.4,0.2-2.6-0.2-3.7-1.1c-0.4-0.4-0.8-0.8-1.1-1.2
		c-0.5-0.7-0.8-1.4-1.1-2.1c0-0.1,0-0.1,0-0.2c0,0,0,0,0,0c0,0,0.1,0,0.1,0c0.7,0,1.5,0,2.2,0c0.1,0,0.2,0,0.3,0.2
		c0.3,0.5,0.6,0.9,1,1.3c0.1,0.1,0.2,0.2,0.4,0.3c0.3,0.2,0.6,0.3,0.9,0.4c0.2,0,0.5,0.1,0.7,0.1c0.4,0,0.8-0.1,1.1-0.3
		c0.3-0.2,0.6-0.4,0.8-0.7c0.3-0.4,0.6-0.8,0.9-1.3c0.6-1,1.1-2.1,1.5-3.1c0.5-1.3,1.1-2.7,1.6-4c0.5-1.1,0.9-2.2,1.5-3.3
		c0.3-0.6,0.6-1.1,1-1.6c0.5-0.6,1-1.1,1.8-1.4c0.9-0.4,1.8-0.6,2.7-0.5c1,0.1,1.9,0.5,2.7,1.2c0.7,0.7,1.3,1.5,1.7,2.4
		C33.2,23.3,33.3,23.7,33.3,24.1C33.3,24,33.3,24,33.3,24.1z"/>
	<path class="st2" d="M20.3,38.2c0-0.1,0.1-0.1,0.1-0.1c0.5-0.7,1.1-1.4,1.6-2.1c0.1-0.1,0.1-0.1,0.3-0.1c1.9,0,3.9,0,5.8,0
		c0.3,0,0.6,0,0.9-0.1c0.6-0.2,1-0.5,1.4-1c0.4-0.5,0.6-1.1,0.7-1.8c0-0.1,0-0.3,0-0.5c0-2.1,0-4.2,0-6.2c0-0.1,0-0.1,0-0.2
		c0.8,0,1.7,0,2.5-0.1c0,0.1,0,0.1,0,0.2c0,2.2,0,4.4,0,6.6c0,0.7-0.1,1.4-0.4,2.1c-0.4,1-1.1,1.9-2,2.5c-0.8,0.5-1.8,0.8-2.8,1
		c-0.1,0-0.2,0-0.3,0c-2.3,0-4.7-0.1-7-0.1C20.9,38.2,20.6,38.2,20.3,38.2z"/>
	<path class="st2" d="M12.5,20.3c0,3.8,0,7.5,0,11.3c-0.1,0-2.2,0.1-2.4,0c0-0.1,0-0.1,0-0.2c0-1,0-2,0-3c0-2,0-3.9,0-5.9
		c0-0.1,0-0.2,0.1-0.3c0.7-0.6,1.4-1.2,2.2-1.8C12.4,20.4,12.5,20.4,12.5,20.3z"/>
	<path class="st2" d="M10.1,9.4c0.9,0,1.7,0,2.5-0.1c0,0.1,0,0.1,0,0.1c0,0.9,0,1.8,0,2.7c0,0.1,0,0.1-0.1,0.2
		c-0.8,0.6-1.6,1.2-2.4,1.9c0,0,0,0-0.1,0C10.1,12.7,10.1,11,10.1,9.4z"/>
</g>
</svg>
